# xmcd
#
# Track frame offsets:
#        183
#        21915
#        35318
#        46920
#        63615
#        90005
#        99525
#        109535
#        130683
#        169788
#        205413
#        220568
#        241143
#        312150
#
# Disc length: 4628 seconds
#
# Revision: 9
# Processed by: cddbd v1.5.1PL2 Copyright (c) Steve Scherf et al.
# Submitted via: ExactAudioCopy v0.95b3
#
DISCID=ac12120e
DTITLE=The Who - Live At Leeds
DYEAR=1970
DGENRE=Rock
TTITLE0=Heaven And Hell
TTITLE1=I Can't Explain
TTITLE2=Fortune Teller
TTITLE3=Tattoo
TTITLE4=Young Man Blues
TTITLE5=Substitute
TTITLE6=Happy Jack
TTITLE7=I'm A Boy
TTITLE8=A Quick One, While He's Away
TTITLE9=Amazing Journey/Sparks
TTITLE10=Summertime Blues
TTITLE11=Shakin' All Over
TTITLE12=My Generation
TTITLE13=Magic Bus
EXTD=YEAR: 1970
EXTT0=
EXTT1=
EXTT2=
EXTT3=
EXTT4=
EXTT5=
EXTT6=
EXTT7=
EXTT8=
EXTT9=
EXTT10=
EXTT11=
EXTT12=
EXTT13=
PLAYORDER=
